<?xml version="1.0" encoding="UTF-8"?> <svg xmlns="http://www.w3.org/2000/svg" width="100" height="100" viewBox="0 0 100 100" fill="none"> <path d="M93.6 15.3H70.6C69.8 10.6 67.8 7.09999 64.7 5.19999C61.2 2.99999 56.7 2.69999 51.1 4.29999C47.5 2.79999 42.9 3.09999 39 5.09999C34.9 7.19999 32.2 10.8 31.2 15.2H6.39998C3.99998 15.2 2.09998 17.1 2.09998 19.5V86.8C2.09998 89.2 3.99998 91.1 6.39998 91.1H22.4V95.8C22.4 96.3 22.8 96.7 23.3 96.7H76.5C77 96.7 77.4 96.3 77.4 95.8V91.1H93.4C95.8 91.1 97.7 89.2 97.7 86.8V19.5C97.8 17.2 95.9 15.3 93.6 15.3ZM42.1 59.6V56.1C44.5 57.2 47.2 57.8 50 57.8C52.9 57.8 55.7 57.2 58.1 56V59.6L50 61.6L42.1 59.6ZM49.1 63.3V65.2L38.6 70.7L36.4 62.4C37.9 61.9 39.2 61.6 40 61.4C40.1 61.4 40.1 61.4 40.2 61.4H40.3C40.5 61.3 40.7 61.3 40.9 61.3L49.1 63.3ZM50.9 63.3L59.2 61.1C59.5 61.2 60.3 61.3 61.4 61.6H61.5C61.7 61.6 61.9 61.7 62.1 61.8H62.2C62.4 61.9 62.6 61.9 62.8 62C62.9 62 63 62.1 63.2 62.1C63.3 62.1 63.4 62.2 63.5 62.2C63.6 62.2 63.7 62.3 63.8 62.3L61.6 70.7L51.1 65.2V63.3H50.9ZM50 55.9C45.5 55.9 41.3 54.3 38.4 51.4C35.6 48.6 34.1 44.7 34.1 40.2V38.2C34.1 37.7 33.7 37.3 33.2 37.3C30.6 37.3 29.4 35.3 29.4 33.5C29.4 31.6 30.7 29.7 33.5 29.7C33.7 29.7 33.8 29.7 33.9 29.6C34 29.6 34 29.5 34.1 29.5C34.1 29.4 34.2 29.4 34.2 29.3C35.9 26 37.6 24.1 39.4 23.6C41.7 22.9 44.3 24.4 47.6 26.3C47.8 26.4 48 26.5 48.2 26.6C48.3 26.6 48.3 26.7 48.4 26.7C48.6 26.8 48.8 26.9 49 27C49 27 49.1 27 49.1 27.1C49.3 27.2 49.5 27.3 49.7 27.5C49.8 27.5 49.8 27.6 49.9 27.6C50.1 27.7 50.3 27.8 50.4 27.9C50.5 27.9 50.5 28 50.6 28C50.8 28.1 51 28.2 51.3 28.3C51.4 28.3 51.4 28.4 51.5 28.4C51.7 28.5 51.9 28.6 52 28.7C52.1 28.7 52.1 28.8 52.2 28.8C52.4 28.9 52.7 29 52.9 29.1C53 29.1 53 29.1 53.1 29.2C53.3 29.3 53.5 29.4 53.7 29.4C53.8 29.4 53.9 29.5 53.9 29.5C54.1 29.6 54.4 29.7 54.6 29.8H54.7C54.9 29.9 55.2 30 55.4 30C55.5 30 55.6 30.1 55.7 30.1C55.9 30.2 56.1 30.2 56.3 30.3C56.4 30.3 56.4 30.3 56.5 30.4C56.8 30.5 57 30.5 57.3 30.6C57.4 30.6 57.5 30.6 57.6 30.7C57.8 30.7 58 30.8 58.2 30.8C58.3 30.8 58.4 30.8 58.4 30.8C58.7 30.8 59 30.9 59.3 30.9C59.4 30.9 59.5 30.9 59.5 30.9C59.7 30.9 60 30.9 60.2 31C60.3 31 60.4 31 60.5 31C60.8 31 61.1 31 61.4 31C61.5 31 61.6 31 61.7 31C61.8 31 62 31 62.1 31C62.2 31 62.3 31 62.5 31C62.6 31 62.8 31 62.9 31C63 31 63.1 31 63.3 31C63.5 31 63.6 31 63.8 30.9C63.9 30.9 64 30.9 64.2 30.8C64.4 30.8 64.5 30.8 64.7 30.7C64.8 30.7 64.9 30.7 65.1 30.6C65.3 30.6 65.4 30.5 65.6 30.5C65.7 30.5 65.8 30.5 66 30.4C66.2 30.4 66.4 30.3 66.5 30.3C66.6 30.3 66.7 30.2 66.8 30.2C67 30.1 67.2 30.1 67.5 30C67.6 30 67.7 30 67.7 29.9C67.7 29.9 67.7 29.9 67.8 29.9C69.5 30.5 70.3 32 70.3 33.5C70.3 35.3 69.1 37.3 66.5 37.3C66 37.3 65.6 37.7 65.6 38.2V40.2C65.6 44.7 64.1 48.6 61.3 51.4C58.6 54.2 54.5 55.9 50 55.9ZM39.8 6.79999C43.3 4.99999 47.6 4.69999 50.6 6.19999C50.8 6.29999 51 6.29999 51.3 6.19999C56.5 4.59999 60.6 4.79999 63.6 6.69999C66.7 8.69999 68.1 12.3 68.6 15.3H33.1C34.1 11.5 36.4 8.59999 39.8 6.79999ZM32.6 18.9C32.6 18.7 32.6 18.6 32.6 18.4C32.6 18.2 32.6 18 32.6 17.8C32.6 17.6 32.6 17.5 32.6 17.3C32.6 17.2 32.6 17.2 32.6 17.1H68.8C68.8 17.1 68.8 17.1 68.8 17.2C68.8 17.4 68.8 17.7 68.9 17.9C68.9 18 68.9 18.1 68.9 18.2C68.9 18.4 68.9 18.6 68.9 18.7C68.9 18.8 68.9 18.9 68.9 19C68.9 19.2 68.9 19.3 68.9 19.5C68.9 19.6 68.9 19.7 68.9 19.8C68.9 20 68.9 20.1 68.9 20.3C68.9 20.4 68.9 20.5 68.9 20.6C68.9 20.7 68.9 20.9 68.9 21C68.9 21.1 68.9 21.2 68.9 21.3C68.9 21.4 68.9 21.6 68.9 21.7C68.9 21.8 68.9 21.9 68.9 22C68.9 22.1 68.9 22.3 68.9 22.4C68.9 22.5 68.9 22.6 68.9 22.7C68.9 22.8 68.9 23 68.9 23.1C68.9 23.2 68.9 23.3 68.9 23.4C68.9 23.5 68.9 23.7 68.8 23.8C68.8 23.9 68.8 24 68.8 24.1C68.8 24.2 68.8 24.3 68.7 24.5C68.7 24.6 68.7 24.7 68.6 24.8C68.6 24.9 68.6 25 68.5 25.2C68.5 25.3 68.5 25.4 68.4 25.5C68.4 25.6 68.3 25.7 68.3 25.8C68.3 25.9 68.3 26 68.2 26.1C68.2 26.2 68.1 26.3 68.1 26.4C68.1 26.5 68.1 26.5 68 26.6C68 26.7 67.9 26.8 67.9 27C67.9 27.1 67.9 27.1 67.8 27.2C67.7 27.4 67.7 27.5 67.6 27.7C63.1 29.2 59.4 28.9 56 27.9C53.2 27 50.7 25.6 48.4 24.2C48.2 24.1 48 24 47.8 23.9C47.7 23.9 47.6 23.8 47.6 23.8C47.5 23.7 47.4 23.7 47.2 23.6C47.1 23.6 47 23.5 46.9 23.5C46.8 23.4 46.7 23.4 46.6 23.3C46.5 23.3 46.4 23.2 46.3 23.2C46.2 23.1 46.1 23.1 45.9 23C45.8 23 45.8 22.9 45.7 22.9C45.5 22.8 45.3 22.7 45.2 22.6C45.1 22.6 45.1 22.5 45 22.5C44.9 22.4 44.8 22.4 44.7 22.3C44.6 22.3 44.5 22.2 44.5 22.2C44.4 22.2 44.3 22.1 44.2 22.1C44.1 22.1 44 22 44 22C43.9 22 43.8 21.9 43.7 21.9C43.6 21.9 43.5 21.8 43.5 21.8C43.3 21.7 43.2 21.7 43 21.6C42.9 21.6 42.9 21.6 42.8 21.5C42.7 21.5 42.6 21.4 42.4 21.4C42.3 21.4 42.2 21.4 42.2 21.3C42.1 21.3 42 21.3 41.9 21.2C41.8 21.2 41.7 21.2 41.7 21.2C41.6 21.2 41.5 21.2 41.4 21.2C41.3 21.2 41.3 21.2 41.2 21.2C41.1 21.2 40.9 21.2 40.8 21.2H40.7C40.5 21.2 40.4 21.2 40.2 21.2C40.1 21.2 40.1 21.2 40 21.2C39.9 21.2 39.8 21.2 39.6 21.3C39.5 21.3 39.5 21.3 39.4 21.3C39.2 21.3 39.1 21.4 38.9 21.4C37 22 35.2 23.5 33.6 26.2C33.5 25.8 33.3 25.3 33.2 24.9C33.2 24.8 33.1 24.6 33.1 24.5C33 24.2 33 23.9 32.9 23.6C32.9 23.4 32.8 23.3 32.8 23.1C32.8 22.8 32.7 22.6 32.7 22.3C32.7 22.1 32.7 22 32.6 21.8C32.6 21.6 32.5 21.3 32.5 21.1C32.5 20.9 32.5 20.8 32.5 20.6C32.5 20.4 32.5 20.1 32.5 19.9C32.5 19.7 32.5 19.6 32.5 19.4C32.6 19.4 32.6 19.2 32.6 18.9ZM22.7 71.9C22.5 72.7 22.4 73.6 22.4 74.6V89.2H6.39998C5.09998 89.2 3.99998 88.1 3.99998 86.8V19.5C3.99998 18.2 5.09998 17.1 6.39998 17.1H30.8C30.8 17.2 30.8 17.2 30.8 17.3C30.8 17.5 30.8 17.7 30.8 17.9C30.8 18.2 30.8 18.5 30.8 18.8C30.8 19 30.8 19.2 30.8 19.4C30.8 19.7 30.8 20 30.8 20.3C30.8 20.5 30.8 20.7 30.8 20.9C30.8 21.2 30.8 21.5 30.9 21.8C30.9 22 31 22.2 31 22.5C31 22.8 31.1 23.1 31.1 23.4C31.1 23.6 31.2 23.8 31.2 24.1C31.3 24.4 31.3 24.7 31.4 25.1C31.5 25.3 31.5 25.5 31.6 25.7C31.7 26.1 31.8 26.4 31.9 26.8C32 27 32 27.2 32.1 27.3C32.2 27.5 32.2 27.6 32.3 27.8C30.7 28.1 29.7 28.8 29.1 29.5C28.1 30.5 27.6 31.9 27.6 33.4C27.6 36 29.2 38.6 32.3 39V40.2C32.3 45.2 34 49.6 37.2 52.7C38.1 53.6 39.1 54.4 40.2 55.1V59.4C37.5 59.9 25 62.9 22.7 71.9ZM31.3 94.9H24.3V91.1H31.3V94.9ZM66.8 94.9H33.2V91.1H66.8V94.9V94.9ZM75.7 94.9H68.7V91.1H75.7V94.9ZM75.7 89.2H68.7V76.4C68.7 75.9 68.3 75.5 67.8 75.5C67.3 75.5 66.9 75.9 66.9 76.4V89.2H33.2V76.4C33.2 75.9 32.8 75.5 32.3 75.5C31.8 75.5 31.4 75.9 31.4 76.4V89.2H24.4V74.7C24.4 73.8 24.5 73.1 24.6 72.4C25.8 67.6 30.5 64.7 34.6 63.1L37.1 72.4C37.2 72.7 37.4 72.9 37.6 73C37.7 73.1 37.8 73.1 38 73.1C38.1 73.1 38.3 73.1 38.4 73L50 66.9L61.6 73C61.7 73.1 61.9 73.1 62 73.1C62.1 73.1 62.3 73.1 62.4 73C62.7 72.9 62.9 72.7 62.9 72.4L65.4 63.1C69.5 64.8 74.2 67.7 75.4 72.4C75.6 73 75.6 73.8 75.6 74.7V89.2H75.7ZM96 86.8C96 88.1 94.9 89.2 93.6 89.2H77.6V74.7C77.6 73.6 77.5 72.8 77.3 72C75.1 63.2 63.3 60.2 60.1 59.5V54.9C61.1 54.3 62 53.5 62.9 52.7C66.1 49.5 67.8 45.2 67.8 40.2V39C70.9 38.6 72.5 36 72.5 33.4C72.5 31.5 71.6 29.5 69.7 28.5V28.4C69.7 28.3 69.8 28.2 69.8 28C69.8 27.9 69.8 27.8 69.9 27.8C69.9 27.7 70 27.6 70 27.4C70 27.3 70 27.2 70.1 27.1C70.1 27 70.2 26.9 70.2 26.7C70.2 26.6 70.2 26.5 70.3 26.4C70.3 26.3 70.4 26.1 70.4 26C70.4 25.9 70.4 25.8 70.5 25.7C70.5 25.6 70.6 25.4 70.6 25.3C70.6 25.2 70.6 25.1 70.7 25C70.7 24.9 70.7 24.7 70.8 24.6C70.8 24.5 70.8 24.4 70.9 24.2C70.9 24.1 70.9 23.9 71 23.8C71 23.7 71 23.6 71 23.4C71 23.2 71 23.1 71 22.9C71 22.8 71 22.7 71 22.5C71 22.3 71 22.2 71 22C71 21.9 71 21.8 71 21.6C71 21.4 71 21.3 71 21.1C71 21 71 20.9 71 20.7C71 20.5 71 20.3 71 20.1C71 20 71 19.9 71 19.8C71 19.6 71 19.3 71 19.1C71 19 71 19 71 18.9C71 18.6 71 18.3 71 18C71 17.9 71 17.9 71 17.8C71 17.6 71 17.4 70.9 17.1H93.7C95 17.1 96.1 18.2 96.1 19.5V86.8H96ZM10.5 43.3H20.1C20.5 43.3 20.9 43 20.9 42.5V23C20.9 22.6 20.6 22.2 20.1 22.2H10.5C10.1 22.2 9.69998 22.5 9.69998 23V42.5C9.79998 42.9 10.1 43.3 10.5 43.3ZM11.3 23.7H19.4V41.7H11.3V23.7V23.7ZM81.9 86.8H91.5C91.9 86.8 92.3 86.5 92.3 86V66.6C92.3 66.2 92 65.8 91.5 65.8H81.9C81.5 65.8 81.1 66.1 81.1 66.6V86.1C81.2 86.5 81.5 86.8 81.9 86.8ZM82.7 67.3H90.8V85.3H82.7V67.3ZM81.9 64.6H91.5C91.9 64.6 92.3 64.3 92.3 63.8V58C92.3 57.6 92 57.2 91.5 57.2H81.9C81.5 57.2 81.1 57.5 81.1 58V63.8C81.2 64.2 81.5 64.6 81.9 64.6ZM82.7 58.8H90.8V63.1H82.7V58.8ZM81.9 55.8H91.5C91.9 55.8 92.3 55.5 92.3 55V49.2C92.3 48.8 92 48.4 91.5 48.4H81.9C81.5 48.4 81.1 48.7 81.1 49.2V55C81.2 55.5 81.5 55.8 81.9 55.8ZM82.7 50H90.8V54.3H82.7V50ZM13.4 77C10.6 77 8.39998 79.2 8.39998 82C8.39998 84.8 10.6 87 13.4 87C16.2 87 18.4 84.8 18.4 82C18.4 79.2 16.2 77 13.4 77ZM13.4 85.6C11.4 85.6 9.69998 84 9.69998 81.9C9.69998 79.9 11.3 78.2 13.4 78.2C15.4 78.2 17.1 79.8 17.1 81.9C17.1 84 15.4 85.6 13.4 85.6ZM42.3 76.3C39.7 76.3 37.6 78.4 37.6 81C37.6 83.6 39.7 85.7 42.3 85.7C44.9 85.7 47 83.5 47 81C47 78.5 44.9 76.3 42.3 76.3ZM42.3 83.8C40.8 83.8 39.5 82.5 39.5 81C39.5 79.5 40.8 78.2 42.3 78.2C43.8 78.2 45.1 79.5 45.1 81C45.1 82.5 43.9 83.8 42.3 83.8ZM61.4 76.3H53.9C53.4 76.3 53 76.7 53 77.2V84.7C53 85.2 53.4 85.6 53.9 85.6H61.4C61.9 85.6 62.3 85.2 62.3 84.7V77.2C62.3 76.7 61.9 76.3 61.4 76.3ZM60.5 83.8H54.9V78.2H60.5V83.8ZM55.3 44.8H44.7C44.4 44.8 44.2 44.9 44 45.1C43.8 45.3 43.7 45.5 43.7 45.8C43.8 49.2 46.5 51.8 49.9 51.8C53.3 51.8 56 49.2 56.1 45.8C56.1 45.5 56 45.3 55.8 45.1C55.8 44.9 55.5 44.8 55.3 44.8ZM50 49.9C48 49.9 46.3 48.5 45.8 46.7H54.2C53.7 48.6 52 49.9 50 49.9Z" fill="#00ACA9"></path> <path d="M16.2999 68H16.1999L13.5999 67.5C13.2999 67.4 13.1999 67.2 13.1999 66.9L13.3999 64.7C12.9999 64.5 12.5999 64.3 12.1999 64L10.3999 65.2C10.1999 65.3 9.89993 65.3 9.69993 65.1L8.09993 63C7.99993 62.7 7.99993 62.4 8.19993 62.2L9.79993 60.7C9.59993 60.3 9.49993 59.8 9.39993 59.4L7.29993 59.1C6.99993 59.1 6.79993 58.8 6.79993 58.6V56C6.79993 55.7 6.99993 55.5 7.29993 55.5L9.39993 55.4L9.99993 54L8.59993 52.4C8.39993 52.2 8.39993 51.9 8.59993 51.7L10.3999 49.8C10.5999 49.6 10.8999 49.6 11.0999 49.7L12.7999 50.9C13.1999 50.6 13.5999 50.4 14.0999 50.2L13.9999 48.1C13.9999 47.8 14.1999 47.6 14.4999 47.6L17.0999 47.2C17.3999 47.2 17.5999 47.3 17.6999 47.6L18.1999 49.6C18.6999 49.7 19.1999 49.8 19.5999 49.9L20.8999 48.3C21.0999 48.1 21.3999 48 21.5999 48.2L23.7999 49.6C23.9999 49.7 24.0999 50 23.9999 50.3L23.0999 52.2C23.3999 52.6 23.6999 52.9 23.9999 53.3L26.0999 52.9C26.3999 52.8 26.5999 53 26.6999 53.3L27.4999 55.8C27.5999 56.1 27.4999 56.3 27.1999 56.4L25.1999 57.3C25.1999 57.8 25.1999 58.2 25.0999 58.7L26.9999 59.7C27.1999 59.8 27.2999 60.1 27.1999 60.4L26.1999 62.8C26.0999 63.1 25.7999 63.2 25.5999 63.1L23.4999 62.5C23.1999 62.9 22.8999 63.2 22.5999 63.5L23.3999 65.5C23.4999 65.8 23.3999 66 23.1999 66.2L20.8999 67.4C20.6999 67.5 20.3999 67.5 20.1999 67.2L18.9999 65.3C18.7999 65.3 18.5999 65.4 18.3999 65.4H18.1999C17.9999 65.4 17.7999 65.4 17.5999 65.5L16.8999 67.6C16.6999 67.8 16.4999 68 16.2999 68ZM14.2999 66.5L15.8999 66.8L16.4999 64.8C16.5999 64.6 16.7999 64.4 16.9999 64.4C17.2999 64.4 17.5999 64.4 17.7999 64.3H17.9999C18.2999 64.3 18.4999 64.2 18.7999 64.1C18.9999 64 19.1999 64.1 19.3999 64.3L20.5999 66.1L22.0999 65.3L21.2999 63.4C21.1999 63.2 21.2999 62.9 21.3999 62.8C21.8999 62.4 22.2999 61.9 22.5999 61.4C22.6999 61.2 22.9999 61.1 23.1999 61.2L25.1999 61.8L25.7999 60.3L23.9999 59.3C23.7999 59.2 23.6999 59 23.6999 58.7C23.7999 58.1 23.7999 57.5 23.7999 56.8C23.7999 56.6 23.8999 56.4 24.0999 56.3L25.9999 55.5L25.4999 53.9L23.4999 54.3C23.2999 54.3 22.9999 54.2 22.8999 54C22.5999 53.4 22.1999 52.9 21.6999 52.5C21.4999 52.3 21.4999 52.1 21.5999 51.9L22.4999 50.1L21.0999 49.2L19.9999 51C19.8999 51.2 19.5999 51.3 19.3999 51.2C18.7999 51 18.1999 50.8 17.4999 50.8C17.2999 50.8 17.0999 50.6 16.9999 50.4L16.4999 48.5L14.8999 48.7L14.9999 50.7C14.9999 50.9 14.8999 51.1 14.5999 51.2C13.9999 51.4 13.3999 51.7 12.8999 52.1C12.6999 52.2 12.4999 52.2 12.2999 52.1L10.6999 50.9L9.59993 52.1L10.8999 53.6C10.9999 53.7 11.0999 54 10.9999 54.1L10.2999 56C10.1999 56.2 9.99993 56.3 9.79993 56.3L7.79993 56.4L7.69993 58.1L9.69993 58.4C9.89993 58.4 10.0999 58.6 10.0999 58.8C10.1999 59.4 10.3999 60 10.6999 60.6C10.7999 60.8 10.7999 61.1 10.5999 61.2L9.09993 62.6L10.0999 63.9L11.8999 62.8C12.0999 62.7 12.2999 62.7 12.4999 62.8C12.9999 63.2 13.4999 63.5 14.0999 63.8C14.2999 63.9 14.3999 64.1 14.3999 64.3L14.2999 66.5Z" fill="#00ACA9"></path> <path d="M17 61.5C16.2 61.5 15.4 61.2 14.7 60.7C13.9 60.1 13.3 59.2 13.2 58.2C13.2 57.9 13.4 57.6 13.6 57.6C13.9 57.6 14.2 57.8 14.2 58C14.3 58.7 14.7 59.4 15.3 59.9C15.9 60.4 16.6 60.5 17.4 60.4C18.9 60.2 20 58.8 19.8 57.2C19.7 56.5 19.3 55.8 18.7 55.3C18.1 54.8 17.4 54.7 16.6 54.8C16.2 54.9 15.7 55 15.4 55.3C15.2 55.5 14.8 55.4 14.7 55.2C14.5 55 14.6 54.6 14.8 54.5C15.3 54.1 15.9 53.9 16.5 53.8C17.5 53.7 18.5 53.9 19.4 54.5C20.2 55.1 20.8 56 20.9 57C21.2 59.1 19.7 61.1 17.6 61.4C17.4 61.4 17.2 61.5 17 61.5Z" fill="#00ACA9"></path> <path d="M75.4 41.9C75.1 41.9 74.9 41.7 74.9 41.4V27.2C74.9 26.9 75.1 26.7 75.4 26.7H88C88.3 26.7 88.5 26.9 88.5 27.2C88.5 27.5 88.3 27.7 88 27.7H75.8V41H91.5V27.7H90.4C90.1 27.7 89.9 27.5 89.9 27.2C89.9 26.9 90.1 26.7 90.4 26.7H92C92.3 26.7 92.5 26.9 92.5 27.2V41.4C92.5 41.7 92.3 41.9 92 41.9H75.4ZM80.4 40.3C80.3 40.3 80.3 40.3 80.2 40.3L77.6 39C77.4 38.9 77.3 38.7 77.3 38.5C77.3 38.5 77.4 37.5 77.9 36.6C78 36.4 78.1 36.3 78.3 36.3C78.4 36.3 78.4 36.3 78.5 36.3C78.6 36.4 78.7 36.4 78.7 36.6C78.7 36.7 78.7 36.8 78.7 37C78.5 37.5 78.3 38 78.3 38.3L80.4 39.3L82.5 38.3C82.3 37.7 81.8 36.5 81.2 35.8C80.9 36 80.7 36.1 80.4 36.1C79.5 36.1 78.9 35.3 78.6 34.5C78.4 34.5 78.2 34.4 78.1 34.2C78 34 78 33.7 78 33.3C78 31.9 79.1 30.8 80.5 30.8C81.8 30.8 82.9 31.8 83 33.1C83 33.2 83 33.3 83 33.3C82.9 33.5 82.8 33.6 82.6 33.7C82.5 34.2 82.3 34.7 82 35.1C83 36.2 83.6 38.3 83.7 38.4C83.8 38.6 83.7 38.9 83.4 39L80.7 40.2C80.5 40.3 80.4 40.3 80.4 40.3ZM79.5 34.4C79.7 34.9 80.1 35.2 80.4 35.2C80.7 35.2 81.2 34.7 81.4 34.1H81.3C81.1 34.1 81 34 80.9 33.9C80.4 34.1 79.9 34.3 79.5 34.4ZM80.4 31.8C79.6 31.8 78.9 32.5 78.9 33.3C78.9 33.4 78.9 33.5 78.9 33.5C79.6 33.4 80.6 33 81 32.7C81.1 32.7 81.2 32.6 81.3 32.6C81.4 32.6 81.5 32.6 81.5 32.7C81.6 32.8 81.7 32.9 81.7 33C81.8 33 81.9 32.9 81.9 32.9C81.8 32.3 81.2 31.8 80.4 31.8ZM85.5 37.7C85.2 37.7 85 37.5 85 37.2C85 36.9 85.2 36.7 85.5 36.7H89C89.3 36.7 89.5 36.9 89.5 37.2C89.5 37.5 89.3 37.7 89 37.7H85.5ZM85.5 35.5C85.2 35.5 85 35.3 85 35C85 34.7 85.2 34.5 85.5 34.5H89C89.3 34.5 89.5 34.7 89.5 35C89.5 35.3 89.3 35.5 89 35.5H85.5ZM76.8 30.2C76.5 30.2 76.3 30 76.3 29.7C76.3 29.4 76.5 29.2 76.8 29.2H90.7C91 29.2 91.2 29.4 91.2 29.7C91.2 30 91 30.2 90.7 30.2H76.8Z" fill="#00ACA9"></path> </svg> 