<?xml version="1.0" encoding="UTF-8"?> <svg xmlns="http://www.w3.org/2000/svg" width="100" height="100" viewBox="0 0 100 100" fill="none"> <g clip-path="url(#clip0)"> <path d="M61.9001 53.7H35.4001V34H46.9001V22.2H61.8001V25.4V27.8L64.1001 25.4V19.4H46.3001L33.2001 33.5V56.6H64.2001V39.5V36.8L61.9001 39.5C61.9001 39.5 61.9001 53.7 61.9001 53.7ZM50.2001 42.9L46.2001 45.1C46.7001 46.4 44.9001 49.5 44.9001 49.5L44.5001 50.5L47.8001 46.8H48.2001L48.1001 47.2L44.5001 50.4L45.5001 50.1C45.5001 50.1 48.5001 48.3 49.9001 48.8L52.1001 44.8L50.2001 42.9ZM67.4001 25.8C66.4001 26.2 65.3001 27 64.2001 27.9C63.5001 28.4 62.7001 29.2 61.9001 29.8C60.5001 31.1 59.1001 32.5 57.8001 33.8C54.1001 37.8 51.1001 41.5 51.1001 41.5L53.5001 43.9C55.7001 42.3 57.5001 40.8 59.3001 39.4C60.3001 38.6 61.2001 37.8 61.9001 37.1C62.8001 36.3 63.5001 35.6 64.2001 34.9C65.6001 33.5 66.7001 32.3 67.4001 31.3C69.2001 29.1 69.5001 27.9 69.5001 27.9L67.4001 25.8ZM71.0001 25L70.4001 24.4C70.0001 24 69.4001 24 69.1001 24.4L68.7001 24.8L70.7001 26.8L71.1001 26.4C71.4001 26 71.4001 25.3 71.0001 25Z" fill="#00ACA9"></path> <path d="M84.9 13.1H15.2C13.4 13.1 12 14.5 12 16.3V62.8H88.2V16.4C88.1 14.6 86.6 13.1 84.9 13.1ZM85.9 60.7H14.1V16.4C14.1 15.9 14.5 15.3 15.2 15.3H84.9C85.4 15.3 86 15.7 86 16.4L85.9 60.7ZM84.9 7H15.2C10 7 5.80005 11.2 5.80005 16.4V72.2C5.80005 77.4 10 81.6 15.2 81.6H41.8V88.4H29.2001V90.6H69.9V88.4H58.3V81.6H84.9C90.1 81.6 94.3 77.4 94.3 72.2V16.4C94.2 11.2 90 7 84.9 7ZM92.1 72.2C92.1 76.2 88.9 79.4 84.9 79.4H15.2C11.2 79.4 8.00005 76.2 8.00005 72.2V16.4C8.00005 12.4 11.2 9.2 15.2 9.2H84.9C88.9 9.2 92.1 12.4 92.1 16.4V72.2V72.2Z" fill="#00ACA9"></path> <path d="M50 67.5C51.7 67.5 53.1 68.9 53.1 70.6C53.1 72.3 51.7 73.7 50 73.7C48.3 73.7 46.9 72.3 46.9 70.6C46.9 68.9 48.3 67.5 50 67.5ZM50 66.2C47.5 66.2 45.5 68.2 45.5 70.7C45.5 73.2 47.5 75.2 50 75.2C52.5 75.2 54.5 73.2 54.5 70.7C54.5 68.2 52.5 66.2 50 66.2Z" fill="#00ACA9"></path> </g> <defs> <clipPath id="clip0"> <rect width="100" height="100" fill="white"></rect> </clipPath> </defs> </svg> 