<?xml version="1.0" encoding="UTF-8"?> <svg xmlns="http://www.w3.org/2000/svg" width="1299" height="291" viewBox="0 0 1299 291" fill="none"> <path d="M282.95 0H202.6V81.269H282.95V0Z" fill="#00ACA9"></path> <path d="M282.95 162.538H202.6V243.807H282.95V162.538Z" fill="#FFE60B"></path> <path d="M122.25 162.538H41.8999V243.807H122.25V162.538Z" fill="#00ACA9"></path> <path d="M202.6 81.2695H122.25V162.539H202.6V81.2695Z" fill="#DFF2FD"></path> <path d="M328.86 243.808H0V290.243H328.86V243.808Z" fill="#DFF2FD"></path> <path d="M1225.52 204.25H1205.43C1205.05 204.25 1204.69 204.1 1204.42 203.834C1204.15 203.568 1204 203.207 1204 202.83V100.44C1204 100.062 1204.15 99.7009 1204.42 99.4348C1204.69 99.1688 1205.05 99.0195 1205.43 99.0195H1224.1C1224.48 99.0222 1224.84 99.1726 1225.1 99.4384C1225.37 99.7041 1225.52 100.064 1225.52 100.44V204.25Z" fill="#00ACA9"></path> <path d="M1243.57 204.25H1225.52L1245.75 139.08L1257.69 100.08C1257.79 99.7899 1257.97 99.5372 1258.22 99.3578C1258.47 99.1784 1258.76 99.0813 1259.07 99.0801H1277.18L1244.94 203.24C1244.85 203.532 1244.67 203.788 1244.42 203.969C1244.17 204.151 1243.88 204.249 1243.57 204.25V204.25Z" fill="#00ACA9"></path> <path d="M1297.28 204.25H1278.6C1278.22 204.248 1277.86 204.097 1277.6 203.831C1277.33 203.566 1277.18 203.206 1277.18 202.83V99.0303H1297.28C1297.66 99.0329 1298.02 99.1833 1298.28 99.4491C1298.55 99.7148 1298.7 100.074 1298.7 100.45V202.83C1298.7 203.206 1298.55 203.566 1298.28 203.831C1298.02 204.097 1297.66 204.248 1297.28 204.25V204.25Z" fill="#00ACA9"></path> <path d="M1183.02 99.0303H1097.48C1097.1 99.0303 1096.74 99.1799 1096.48 99.4462C1096.21 99.7125 1096.06 100.074 1096.06 100.45V115.5C1096.06 115.877 1096.21 116.238 1096.48 116.504C1096.74 116.771 1097.1 116.92 1097.48 116.92H1129.73V202.83C1129.73 203.205 1129.88 203.565 1130.14 203.831C1130.41 204.097 1130.77 204.248 1131.14 204.25H1149.35C1149.73 204.248 1150.09 204.097 1150.35 203.831C1150.62 203.566 1150.77 203.206 1150.77 202.83V116.92H1183.02C1183.4 116.918 1183.76 116.767 1184.02 116.501C1184.29 116.236 1184.44 115.876 1184.44 115.5V100.44C1184.43 100.066 1184.28 99.7091 1184.02 99.4455C1183.75 99.1819 1183.39 99.0329 1183.02 99.0303V99.0303Z" fill="#00ACA9"></path> <path d="M1003.31 204.25H983.22C982.842 204.25 982.48 204.1 982.212 203.834C981.945 203.568 981.793 203.207 981.79 202.83V100.44C981.793 100.062 981.945 99.7009 982.212 99.4348C982.48 99.1688 982.842 99.0195 983.22 99.0195H1001.85C1002.23 99.0222 1002.59 99.1726 1002.85 99.4384C1003.12 99.7041 1003.27 100.064 1003.27 100.44L1003.31 204.25Z" fill="#00ACA9"></path> <path d="M1021.36 204.25H1003.36L1023.59 139.08L1035.53 100.08C1035.63 99.7899 1035.81 99.5372 1036.06 99.3578C1036.31 99.1784 1036.6 99.0813 1036.91 99.0801H1055.02L1022.73 203.24C1022.64 203.533 1022.46 203.789 1022.21 203.971C1021.96 204.153 1021.67 204.251 1021.36 204.25V204.25Z" fill="#00ACA9"></path> <path d="M1075.07 204.25H1056.39C1056.01 204.248 1055.65 204.097 1055.39 203.831C1055.12 203.566 1054.97 203.206 1054.97 202.83V99.0303H1075.07C1075.45 99.0329 1075.81 99.1833 1076.07 99.4491C1076.34 99.7148 1076.49 100.074 1076.49 100.45V202.83C1076.49 203.206 1076.34 203.566 1076.07 203.831C1075.81 204.097 1075.45 204.248 1075.07 204.25V204.25Z" fill="#00ACA9"></path> <path d="M822.94 99.4403C822.672 99.1798 822.314 99.033 821.94 99.0303H810.28C809.904 99.0302 809.544 99.1781 809.276 99.442C809.008 99.7059 808.855 100.064 808.85 100.44V111.67C808.855 112.045 809.006 112.404 809.27 112.67L846.72 149.5L808.85 189.11C808.722 189.243 808.622 189.4 808.555 189.571C808.488 189.743 808.456 189.926 808.46 190.11V202.84C808.46 203.213 808.607 203.57 808.869 203.834C809.132 204.098 809.488 204.248 809.86 204.25H822.57C822.759 204.248 822.945 204.206 823.117 204.129C823.289 204.051 823.443 203.94 823.57 203.8L874.27 149.55L843.05 119.07L822.94 99.4403Z" fill="#00ACA9"></path> <path d="M895.31 100.44C895.31 100.066 895.161 99.7077 894.897 99.4433C894.633 99.1788 894.274 99.0303 893.9 99.0303H875.68C875.306 99.0303 874.947 99.1788 874.683 99.4433C874.419 99.7077 874.27 100.066 874.27 100.44V202.84C874.27 203.214 874.419 203.573 874.683 203.837C874.947 204.102 875.306 204.25 875.68 204.25H893.9C894.274 204.25 894.633 204.102 894.897 203.837C895.161 203.573 895.31 203.214 895.31 202.84V100.44Z" fill="#00ACA9"></path> <path d="M922.25 149.12L958.86 113.12C959.127 112.855 959.281 112.496 959.29 112.12V100.44C959.287 100.059 959.135 99.6941 958.865 99.4247C958.596 99.1552 958.231 99.0026 957.85 99H946.21C946.023 99.0018 945.839 99.0408 945.667 99.1146C945.495 99.1884 945.34 99.2956 945.21 99.43L925.85 118.88L895.31 149.55L946.24 203.8C946.502 204.074 946.861 204.236 947.24 204.25H959.92C960.299 204.25 960.663 204.099 960.931 203.831C961.199 203.563 961.35 203.199 961.35 202.82V190.1C961.351 189.727 961.208 189.369 960.95 189.1L922.25 149.12Z" fill="#00ACA9"></path> <path d="M795.57 187.44H780.2V100.5C780.201 100.308 780.164 100.117 780.092 99.9385C780.019 99.7602 779.912 99.5981 779.776 99.4614C779.64 99.3248 779.479 99.2164 779.301 99.1424C779.123 99.0684 778.933 99.0303 778.74 99.0303H721.48C721.171 99.0288 720.87 99.1246 720.618 99.3041C720.367 99.4836 720.179 99.7377 720.08 100.03L706.79 142.83L692.96 187.44H677.85C677.476 187.44 677.117 187.589 676.853 187.853C676.589 188.118 676.44 188.476 676.44 188.85V226.13C676.443 226.503 676.592 226.859 676.856 227.121C677.121 227.383 677.478 227.53 677.85 227.53H693.97C694.342 227.53 694.699 227.383 694.963 227.121C695.228 226.859 695.377 226.503 695.38 226.13V204.25H778.08V226.03C778.08 226.223 778.118 226.414 778.192 226.593C778.266 226.771 778.374 226.933 778.51 227.07C778.647 227.206 778.809 227.315 778.987 227.388C779.166 227.462 779.357 227.5 779.55 227.5H795.55C795.743 227.5 795.934 227.462 796.112 227.388C796.291 227.315 796.453 227.206 796.589 227.07C796.726 226.933 796.834 226.771 796.908 226.593C796.982 226.414 797.02 226.223 797.02 226.03V188.88C797.012 188.499 796.857 188.136 796.586 187.867C796.316 187.598 795.951 187.445 795.57 187.44V187.44ZM734.34 115.9H759.16V187.44H712.07L734.34 115.9Z" fill="#00ACA9"></path> <path d="M584.98 204.25H564.85C564.472 204.25 564.11 204.1 563.842 203.834C563.574 203.568 563.423 203.207 563.42 202.83V100.44C563.423 100.062 563.574 99.7009 563.842 99.4348C564.11 99.1688 564.472 99.0195 564.85 99.0195H583.52C583.896 99.0222 584.255 99.1726 584.521 99.4384C584.787 99.7041 584.937 100.064 584.94 100.44L584.98 204.25Z" fill="#00ACA9"></path> <path d="M603.03 204.25H584.98L605.21 139.08L617.15 100.08C617.246 99.7899 617.431 99.5372 617.679 99.3578C617.927 99.1784 618.224 99.0813 618.53 99.0801H636.64L604.4 203.24C604.31 203.533 604.128 203.789 603.882 203.971C603.635 204.153 603.336 204.251 603.03 204.25V204.25Z" fill="#00ACA9"></path> <path d="M656.74 204.25H638.06C637.684 204.248 637.325 204.097 637.059 203.831C636.793 203.566 636.643 203.206 636.64 202.83V99.0303H656.74C657.116 99.0329 657.476 99.1833 657.741 99.4491C658.007 99.7148 658.158 100.074 658.16 100.45V202.83C658.158 203.206 658.007 203.566 657.741 203.831C657.476 204.097 657.116 204.248 656.74 204.25V204.25Z" fill="#00ACA9"></path> <path d="M540.11 187.44H524.75V100.5C524.75 100.111 524.595 99.7366 524.319 99.4609C524.044 99.1852 523.67 99.0304 523.28 99.0304H466.03C465.719 99.0268 465.416 99.1216 465.162 99.3012C464.909 99.4809 464.719 99.7361 464.62 100.03L451.33 142.83L437.5 187.44H422.41C422.036 187.44 421.677 187.589 421.413 187.853C421.149 188.118 421 188.476 421 188.85V226.13C421.003 226.503 421.152 226.859 421.416 227.121C421.681 227.383 422.038 227.53 422.41 227.53H438.54C438.911 227.53 439.267 227.383 439.53 227.12C439.792 226.858 439.94 226.502 439.94 226.13V204.25H522.64V226.03C522.64 226.223 522.678 226.415 522.752 226.593C522.826 226.771 522.934 226.933 523.071 227.07C523.207 227.206 523.369 227.315 523.547 227.389C523.726 227.462 523.917 227.5 524.11 227.5H540.11C540.303 227.5 540.494 227.462 540.673 227.389C540.851 227.315 541.013 227.206 541.149 227.07C541.286 226.933 541.394 226.771 541.468 226.593C541.542 226.415 541.58 226.223 541.58 226.03V188.88C541.572 188.496 541.414 188.13 541.139 187.86C540.864 187.591 540.495 187.44 540.11 187.44V187.44ZM478.85 115.87H503.67V187.44H456.62L478.85 115.87Z" fill="#00ACA9"></path> </svg> 