<?xml version="1.0" encoding="UTF-8"?> <svg xmlns="http://www.w3.org/2000/svg" width="100" height="100" viewBox="0 0 100 100" fill="none"> <path opacity="0.1" d="M36.9 97.6C57.2793 97.6 73.8 81.0793 73.8 60.7C73.8 40.3207 57.2793 23.8 36.9 23.8C16.5207 23.8 0 40.3207 0 60.7C0 81.0793 16.5207 97.6 36.9 97.6Z" fill="#BCBCBC"></path> <path d="M94.6 11.7H25.4C22.5 11.7 20.2 14 20.2 16.9V32.1C20.2 32.7 20.7 33.1 21.2 33.1C21.8 33.1 22.2 32.6 22.2 32.1V24.8H97.8V67.8V71.1C97.8 72.9 96.4 74.3 94.6 74.3H58.9L59.4 70.1H61.3C61.8 70.1 62.3 69.7 62.3 69.2L63.3 55.6C63.3 55.2 63.1 54.7 62.7 54.6C62.5 54.5 57.2 52.5 53.8 52.5C51.6 52.5 49 53.2 47.4 53.7L47.5 52.5C47.5 52.2 47.4 51.8 47.1 51.6C47 51.4 43.7 49 37.1 49C30.4 49 27.2 51.4 27 51.5C26.7 51.7 26.6 52 26.6 52.4L26.7 53.7C25.1 53.2 22.4 52.4 20.2 52.4C16.8 52.4 11.5 54.4 11.3 54.5C10.9 54.7 10.6 55.1 10.7 55.5L11.7 69.1C11.7 69.6 12.2 70 12.7 70H14.6L16.2 83C16.3 83.5 16.7 83.9 17.2 83.9H17.3C17.9 83.8 18.3 83.3 18.2 82.8L16.5 68.9V68.8V68.7V68.6V68.5C16.5 68.5 16.5 68.4 16.4 68.4C16.4 68.4 16.4 68.3 16.3 68.3C16.3 68.3 16.3 68.3 16.2 68.2C16.2 68.2 16.1 68.2 16.1 68.1C16.1 68.1 16.1 68.1 16 68.1C16 68.1 15.9 68.1 15.9 68H15.8H15.7H15.6H15.5H13.6L12.7 56.1C14.2 55.6 17.8 54.4 20.1 54.4C22.4 54.4 25.5 55.4 26.8 55.9L27.7 67.4C27.7 67.9 28.2 68.3 28.7 68.3H31L32.8 85C32.9 85.5 33.3 85.9 33.8 85.9H40.3C40.8 85.9 41.3 85.5 41.3 85L43.1 68.4H45.3C45.8 68.4 46.3 68 46.3 67.5L47.2 55.9C48.5 55.5 51.5 54.6 53.8 54.6C56.1 54.6 59.7 55.8 61.2 56.3L60.4 68H58.5H58.4H58.3H58.2H58.1H58H57.9C57.9 68 57.8 68 57.8 68.1C57.8 68.1 57.8 68.1 57.7 68.2C57.7 68.2 57.7 68.3 57.6 68.3C57.6 68.3 57.6 68.3 57.5 68.4V68.5V68.6V68.7V68.8L56.8 74.6C56.7 74.8 56.7 74.9 56.7 75.1C56.7 75.2 56.7 75.3 56.7 75.4L55.8 82.6C55.7 83.2 56.1 83.7 56.7 83.7H56.8C57.3 83.7 57.7 83.3 57.8 82.8L58.6 76.1H94.5C97.4 76.1 99.7 73.8 99.7 70.9V67.6V16.9C99.8 14 97.5 11.7 94.6 11.7ZM44.4 66.3H42.2H42.1H42H41.9H41.8H41.7C41.7 66.3 41.6 66.3 41.6 66.4C41.6 66.4 41.6 66.4 41.5 66.5C41.5 66.5 41.4 66.5 41.4 66.6C41.4 66.6 41.4 66.6 41.3 66.7C41.3 66.7 41.3 66.8 41.2 66.8V66.9V67V67.1V67.2L39.4 83.8H34.7L32.9 67.2V67.1V67V66.9V66.8C32.9 66.8 32.9 66.7 32.8 66.7C32.8 66.7 32.8 66.7 32.7 66.6C32.7 66.6 32.7 66.6 32.6 66.5C32.6 66.5 32.6 66.5 32.5 66.4C32.5 66.4 32.4 66.4 32.4 66.3C32.4 66.3 32.4 66.3 32.3 66.3H32.2H32.1H32H31.9C31.9 66.3 31.9 66.3 31.8 66.3H29.6L28.6 52.8C29.6 52.2 32.4 51 37 51C41.6 51 44.4 52.2 45.4 52.8L44.4 66.3ZM97.8 22.7H22.2V16.9C22.2 15.1 23.6 13.7 25.4 13.7H94.6C96.4 13.7 97.8 15.1 97.8 16.9V22.7ZM33.1 14.9C31.3 14.9 29.8 16.4 29.8 18.2C29.8 20 31.3 21.5 33.1 21.5C34.9 21.5 36.4 20 36.4 18.2C36.3 16.4 34.9 14.9 33.1 14.9ZM33.1 19.4C32.4 19.4 31.9 18.8 31.9 18.2C31.9 17.5 32.5 17 33.1 17C33.8 17 34.3 17.6 34.3 18.2C34.3 18.9 33.7 19.4 33.1 19.4ZM40.9 14.9C39.1 14.9 37.6 16.4 37.6 18.2C37.6 20 39.1 21.5 40.9 21.5C42.7 21.5 44.2 20 44.2 18.2C44.2 16.4 42.7 14.9 40.9 14.9ZM40.9 19.4C40.2 19.4 39.7 18.8 39.7 18.2C39.7 17.5 40.3 17 40.9 17C41.6 17 42.1 17.6 42.1 18.2C42.1 18.9 41.6 19.4 40.9 19.4ZM49 14.9C47.2 14.9 45.7 16.4 45.7 18.2C45.7 20 47.2 21.5 49 21.5C50.8 21.5 52.3 20 52.3 18.2C52.3 16.4 50.8 14.9 49 14.9ZM49 19.4C48.3 19.4 47.8 18.8 47.8 18.2C47.8 17.5 48.4 17 49 17C49.7 17 50.2 17.6 50.2 18.2C50.3 18.9 49.7 19.4 49 19.4ZM93 29.8C92.8 29.6 92.5 29.5 92.3 29.5H68.7C68.1 29.5 67.7 30 67.7 30.5V54C67.7 54.6 68.2 55 68.7 55H92.2C92.8 55 93.2 54.5 93.2 54L93.3 30.5C93.3 30.3 93.2 30 93 29.8ZM91.2 53H69.8V31.5H91.3L91.2 53ZM79.5 60.5H92.2C92.8 60.5 93.2 60 93.2 59.5C93.2 58.9 92.7 58.5 92.2 58.5H79.5C78.9 58.5 78.5 59 78.5 59.5C78.5 60 78.9 60.5 79.5 60.5ZM79.5 65.5H92.2C92.8 65.5 93.2 65 93.2 64.5C93.2 64 92.7 63.5 92.2 63.5H79.5C78.9 63.5 78.5 64 78.5 64.5C78.5 65 78.9 65.5 79.5 65.5ZM79.6 70.6H92.3C92.9 70.6 93.3 70.1 93.3 69.6C93.3 69 92.8 68.6 92.3 68.6H79.6C79 68.6 78.6 69.1 78.6 69.6C78.6 70.1 79 70.6 79.6 70.6ZM44.1 39.6C44.1 35.7 41 32.6 37.1 32.6C33.2 32.6 30.1 35.7 30.1 39.6C30.1 43.2 33 48.5 37.1 48.5C41.1 48.5 44.1 43.2 44.1 39.6ZM32.1 39.6C32.1 36.9 34.3 34.6 37.1 34.6C39.8 34.6 42.1 36.8 42.1 39.6C42.1 42.6 39.7 46.4 37.1 46.4C34.5 46.4 32.1 42.6 32.1 39.6ZM53.9 52.1C57.5 52.1 60.3 47.7 60.3 44C60.3 40.5 57.4 37.6 53.9 37.6C50.4 37.6 47.5 40.5 47.5 44C47.4 47.7 50.3 52.1 53.9 52.1ZM53.9 39.6C56.3 39.6 58.3 41.6 58.3 44C58.3 46.6 56.1 50.1 53.9 50.1C51.7 50.1 49.5 46.6 49.5 44C49.5 41.6 51.4 39.6 53.9 39.6ZM20.2 52.1C23.8 52.1 26.6 47.7 26.6 44C26.6 40.5 23.7 37.6 20.2 37.6C16.7 37.6 13.8 40.5 13.8 44C13.7 47.7 16.6 52.1 20.2 52.1ZM20.2 39.6C22.6 39.6 24.6 41.6 24.6 44C24.6 46.6 22.4 50.1 20.2 50.1C18 50.1 15.8 46.6 15.8 44C15.8 41.6 17.8 39.6 20.2 39.6Z" fill="#00ACA9"></path> </svg> 