<?xml version="1.0" encoding="UTF-8"?> <svg xmlns="http://www.w3.org/2000/svg" width="100" height="100" viewBox="0 0 100 100" fill="none"> <path d="M91 0.600006H9V61.5H19.2C18.8 67.6 19.9 73.9 23.7 79.7L26.9 85.8C30.1 92 36.2 96 43.1 96.7H43.2L43.3 96.8C45.6 98.5 48.3 99.4 51.1 99.4C53.9 99.4 56.6 98.5 58.9 96.8L59 96.7H59.1C65.9 96 71.9 92 75.2 85.8L78.4 79.8C82.2 74 83.3 67.6 82.9 61.6H91V0.600006ZM19.3 60.2H10.4V55.8H20C19.7 57.2 19.5 58.7 19.3 60.2ZM40.2 94.8C35 93.4 30.6 89.9 28.1 85.2L24.9 79C13.5 61.6 28.3 38.2 31.3 33.7L31.5 33.3L38.1 40.3L38 40.6C31.8 50.9 29.9 59.8 32.4 66.9L33.1 67.6C34.1 68.2 37.6 70.4 39.9 74.1L40 74.3L39.9 74.5C38 77.2 36.9 80.5 36.9 84C36.9 87.8 38.2 91.5 40.5 94.3L41.2 95.1L40.2 94.8ZM20.6 33.9C20.1 33.7 19.6 33.3 19.1 33C18.9 32.9 18.7 32.8 18.5 33L16.8 34L15.8 32.7L17.2 31.3C17.4 31.1 17.4 30.9 17.3 30.7C17 30.2 16.9 29.6 16.8 29C16.8 28.8 16.6 28.6 16.4 28.6L14.4 28.3L14.5 26.7L16.4 26.6C16.6 26.6 16.8 26.5 16.8 26.3L17.5 24.5C17.6 24.3 17.5 24.1 17.4 24L16.1 22.6L17.2 21.4L18.7 22.5C18.9 22.6 19.1 22.6 19.3 22.5C19.8 22.1 20.4 21.8 20.9 21.6C21.1 21.5 21.2 21.3 21.2 21.1L21.1 19.2L22.7 19L23.1 20.8C23.2 21 23.3 21.2 23.6 21.2C24.2 21.2 24.8 21.4 25.4 21.6C25.6 21.7 25.8 21.6 26 21.4L27.2 19.9L28.5 20.7L27.7 22.4C27.6 22.6 27.6 22.8 27.8 23C28.2 23.4 28.6 23.9 28.9 24.5C29 24.7 29.2 24.8 29.4 24.7L31.3 24.3L31.8 25.8L30 26.6C29.8 26.7 29.7 26.9 29.7 27.1C29.8 27.7 29.7 28.3 29.6 28.9C29.6 29.1 29.7 29.3 29.9 29.4L31.6 30.3L31.4 30.9L30.9 31.6V32L29.3 31.5C29.1 31.4 28.9 31.5 28.7 31.7C28.4 32.2 28 32.6 27.5 33C27.3 33.1 27.3 33.4 27.4 33.6L28.2 35.5L26.8 36.2L25.7 34.5C25.6 34.3 25.4 34.2 25.2 34.3C24.9 34.4 24.7 34.4 24.4 34.5H24.2C23.9 34.5 23.7 34.6 23.4 34.6C23.2 34.6 23 34.7 22.9 35L22.3 36.9L20.7 36.6L20.9 34.6C20.9 34.2 20.8 34 20.6 33.9ZM30.3 32.8C30 33.3 29.5 34 29 34.8L28.5 33.5C28.8 33.2 29.1 32.9 29.4 32.5L30.3 32.8ZM48.4 36H53.7C53.5 37.2 54.2 38.4 55.4 38.8L62.6 40.9L62.7 41C63.1 41.6 63.4 42.2 63.7 42.7H54.2V44.1H64.5C64.8 44.7 65.2 45.3 65.5 45.9H54.2V47.3H66.1C66.3 47.6 66.4 48 66.6 48.3H54.2V49.7H67.1C67.2 50 67.4 50.4 67.5 50.7H54.2V52.1H68C68.2 52.8 68.4 53.6 68.6 54.3H33.5C34.5 50.2 36.5 45.8 39.4 41L39.5 40.9L46.7 38.8C47.8 38.4 48.6 37.2 48.4 36ZM55 36.2C55.1 35.7 55.5 35.3 56 35.3L60.2 34.9L57.4 30.1C56.8 29.1 56.7 27.9 57.1 26.8C57.5 25.7 58.3 24.8 59.4 24.4C59.9 24.2 60.4 24.1 60.9 24.1C62.1 24.1 63.2 24.6 64 25.6L69.6 32.4L62.8 39.7L55.7 37.6C55.2 37.3 54.9 36.8 55 36.2ZM53.2 64.5C52 64.5 51.2 64.5 51 64.5C50.9 64.5 50.1 64.5 48.8 64.5C45.5 64.5 39.2 64.7 33.8 65.9L33.6 66L33.5 65.7C33.1 64.4 32.9 63 32.8 61.6H69.3C69.2 63 69 64.4 68.6 65.7L68.5 66L68.2 65.9C62.8 64.7 56.5 64.5 53.2 64.5ZM67.1 67.1L66.5 67.6C65.1 68.7 63 70.4 61.3 72.9L61.1 73.3L60.8 73C58.2 70.2 54.7 68.7 51 68.7C47.3 68.7 43.9 70.2 41.2 73L41 73.2L40.8 72.8C39.1 70.3 37.1 68.5 35.6 67.5L35 67L35.8 66.9C40.8 66 46.3 65.8 49.2 65.8C50.3 65.8 51 65.8 51.2 65.8C51.2 65.8 52 65.8 53.2 65.8C56 65.8 61.6 65.9 66.5 66.9L67.1 67.1ZM32.7 60.2C32.7 58.8 32.9 57.3 33.2 55.8H68.9C69.2 57.3 69.4 58.8 69.4 60.2H32.7ZM46.3 37.4L39.2 39.5L32.4 32.2L38 25.4C38.8 24.5 39.9 23.9 41.1 23.9C41.6 23.9 42.2 24 42.6 24.2C43.7 24.6 44.5 25.5 44.9 26.6C45.3 27.7 45.2 28.9 44.6 29.9L41.8 34.7L46 35.1C46.5 35.1 46.9 35.5 47 36C47.1 36.8 46.8 37.3 46.3 37.4ZM51 98C44 98 38.3 91.7 38.3 84C38.3 76.3 44 70 51 70C58 70 63.7 76.3 63.7 84C63.7 91.7 58 98 51 98ZM77.1 79.1L73.9 85.2C71.4 90 67 93.5 61.8 94.8L60.8 95.1L61.5 94.3C63.8 91.5 65.1 87.8 65.1 84C65.1 80.5 64.1 77.3 62.1 74.5L62 74.3L62.1 74.1C64.4 70.4 67.8 68.2 68.9 67.6L69.6 66.9C72.1 59.8 70.3 50.9 64 40.6L63.9 40.4L70.5 33.4L70.7 33.8C73.8 38.2 88.5 61.6 77.1 79.1ZM89.6 60.2H82.7C82.6 58.7 82.3 57.2 82 55.8H89.6V60.2V60.2ZM89.6 54.4H81.7C81.5 53.7 81.3 52.9 81.1 52.2H85.6V50.8H80.7C80.6 50.4 80.5 50.1 80.4 49.8H85.7V48.4H79.9C79.8 48.1 79.6 47.7 79.5 47.4H85.7V46H79C78.7 45.4 78.5 44.8 78.2 44.2H85.7V42.8H77.6C75.2 37.9 72.8 34.2 71.7 32.6L71.6 32.4L71.2 31.9L70.7 31.3L65.2 24.7C64.2 23.5 62.6 22.7 61 22.7C60.3 22.7 59.6 22.8 58.9 23.1C57.4 23.7 56.3 24.9 55.8 26.4C55.3 27.9 55.5 29.5 56.3 30.9L58 33.8L56 34C55.3 34.1 54.7 34.4 54.3 34.9V34.8H47.9C47.9 34.8 47.9 34.8 47.9 34.9C47.5 34.4 46.9 34.1 46.2 34L44.2 33.8L45.9 30.9C46 30.8 46 30.7 46.1 30.5V33.6H46.2C46.7 33.6 47.1 33.9 47.5 34.2V30.7H51.7V29.3H46.6C46.7 28.7 46.8 28.1 46.7 27.5H52.7V21H46V25.8C45.4 24.6 44.4 23.7 43.2 23.2C42.5 22.9 41.8 22.8 41.1 22.8C39.5 22.8 38 23.5 36.9 24.8L32.5 30.1L30.7 29.1C30.8 28.7 30.8 28.2 30.7 27.8L32.6 27C32.8 26.9 33 26.6 32.9 26.4L32.1 24C32 23.8 31.8 23.6 31.5 23.7L29.5 24.1C29.3 23.7 29 23.3 28.7 23L29.6 21.2C29.7 21 29.6 20.7 29.4 20.5L27.4 19C27.2 18.9 26.9 18.9 26.7 19.1L25.5 20.7C25.1 20.6 24.6 20.5 24.1 20.4L23.6 18.5C23.5 18.2 23.3 18.1 23 18.1L20.5 18.4C20.2 18.4 20.1 18.7 20.1 18.9L20.2 20.9C19.8 21.1 19.4 21.3 19 21.5L17.4 20.3C17.2 20.1 16.9 20.2 16.7 20.4L15 22.3C14.8 22.5 14.8 22.8 15 23L16.4 24.5L15.9 25.7L14 25.9C13.7 25.9 13.5 26.1 13.5 26.4L13.4 28.9C13.4 29.2 13.6 29.4 13.8 29.4L15.9 29.7C16 30.1 16.1 30.5 16.3 31L14.8 32.4C14.6 32.6 14.6 32.9 14.7 33.1L16.2 35.1C16.4 35.3 16.6 35.4 16.9 35.2L18.7 34.1C19 34.4 19.4 34.6 19.8 34.8L19.6 36.9C19.6 37.2 19.7 37.4 20 37.4L22.4 37.9H22.5C22.7 37.9 22.9 37.8 23 37.5L23.6 35.5C23.8 35.5 24 35.5 24.1 35.4H24.3C24.5 35.4 24.7 35.3 24.8 35.3L26 37.1C26.1 37.3 26.4 37.4 26.7 37.3L27.7 36.8C25.2 40.9 22 47.3 20.3 54.4H10.4V5.40001H89.6V54.4V54.4ZM47.4 26.1V22.3H51.2V26.1H47.4ZM89.6 4.00001H10.4V2.00001H89.6V4.00001V4.00001ZM86.7 32V11.4H70.6V31.1L71.3 32H86.7ZM71.9 12.8H85.3V16.2H71.9V12.8ZM71.9 17.6H85.3V19.6H71.9V17.6ZM71.9 21H85.3V23H71.9V21ZM71.9 24.4H85.3V26.4H71.9V24.4ZM71.9 27.8H85.3V30.6H71.9V27.8ZM56.4 25.1C56.9 24.1 57.8 23.2 59 22.8C59.6 22.5 60.3 22.4 60.9 22.4C61.6 22.4 62.3 22.6 63 22.8V21H56.4V25.1ZM41.2 22.4C41.5 22.4 41.7 22.4 42 22.5V18.3H66.9V26.7L68.1 28.2V17.7V16.9H40.7V22.4C40.9 22.4 41 22.4 41.2 22.4ZM23.3 31.6C23.5 31.6 23.6 31.6 23.8 31.6C25.8 31.3 27.2 29.5 27 27.4C26.9 26.4 26.4 25.6 25.6 25C24.8 24.4 23.8 24.1 22.9 24.3C22.3 24.4 21.8 24.6 21.3 24.9C21.1 25.1 21 25.4 21.2 25.6C21.4 25.8 21.7 25.9 21.9 25.7C22.3 25.5 22.6 25.3 23.1 25.2C23.8 25.1 24.5 25.3 25.1 25.7C25.7 26.1 26 26.8 26.1 27.5C26.3 29 25.3 30.3 23.8 30.5C23.1 30.6 22.4 30.4 21.8 30C21.2 29.6 20.9 28.9 20.8 28.2C20.8 27.9 20.5 27.7 20.2 27.8C19.9 27.8 19.7 28.1 19.8 28.4C19.9 29.4 20.4 30.2 21.2 30.8C21.7 31.4 22.5 31.6 23.3 31.6Z" fill="#00ACA9"></path> </svg> 