<?xml version="1.0" encoding="UTF-8"?> <svg xmlns="http://www.w3.org/2000/svg" width="100" height="100" viewBox="0 0 100 100" fill="none"> <path opacity="0.1" d="M40.2 97.3C62.1257 97.3 79.9 79.5257 79.9 57.6C79.9 35.6743 62.1257 17.9 40.2 17.9C18.2743 17.9 0.5 35.6743 0.5 57.6C0.5 79.5257 18.2743 97.3 40.2 97.3Z" fill="#BCBCBC"></path> <path fill-rule="evenodd" clip-rule="evenodd" d="M97.4 29.2C97.2 29.2 97 29.1 96.8 29L93.4 25.9C93.1 25.6 93 25.1 93.4 24.7C93.6 24.5 93.8 24.4 94 24.4C94.2 24.4 94.4 24.5 94.6 24.6L95.7 25.6C93.8 20.8 90.7 16.5 86.6 13.1C82.4 9.70001 77.4 7.40001 72 6.50001H71.9L72.2 4.60001H72.3C78 5.60001 83.4 8.00001 87.8 11.7C92.1 15.3 95.5 19.9 97.5 25.1L97.9 23.6C98 23.3 98.3 23 98.7 23C98.8 23 98.9 23 98.9 23C99.3 23.1 99.6 23.6 99.4 24L98 28.4C98.1 29 97.8 29.2 97.4 29.2Z" fill="#00ACA9"></path> <path fill-rule="evenodd" clip-rule="evenodd" d="M64.6 69.2C64.7 69 64.8 68.8 65 68.7L69.1 66.5C69.5 66.3 70 66.4 70.2 66.8C70.3 67 70.3 67.2 70.3 67.5C70.2 67.7 70.1 67.9 69.9 68L68.6 68.7C73.8 68.4 78.9 66.8 83.3 64C87.9 61.1 91.7 57 94.3 52.3L94.4 52.2L96.1 53.1L96 53.2C93.3 58.3 89.3 62.6 84.3 65.7C79.5 68.7 74.1 70.4 68.5 70.6L69.7 71.5C70 71.7 70.1 72.1 70 72.4C70 72.5 69.9 72.6 69.9 72.6C69.6 73 69.1 73 68.8 72.8L65 70.1C64.6 70 64.5 69.6 64.6 69.2Z" fill="#00ACA9"></path> <path fill-rule="evenodd" clip-rule="evenodd" d="M44.2 10.9C44.3 11.1 44.3 11.3 44.2 11.5L42.6 15.8C42.4 16.2 42 16.4 41.6 16.3C41.4 16.2 41.2 16.1 41.1 15.8C41 15.6 41 15.4 41.1 15.2L41.6 13.8C37.9 17.4 35.1 22 33.6 27C32 32.2 31.9 37.8 33.1 43.1V43.2L31.2 43.6V43.5C30 38 30.2 32.1 31.8 26.5C33.4 21.1 36.4 16.2 40.4 12.3L39 12.5C38.6 12.5 38.3 12.3 38.2 12C38.2 11.9 38.1 11.8 38.1 11.8C38.1 11.4 38.4 11 38.8 10.9L43.4 10.4C43.7 10.4 44.1 10.6 44.2 10.9Z" fill="#00ACA9"></path> <path d="M51.2 68.4C50.9 68.4 50.5999 68.3 50.2999 68C49.7999 67.5 49.7999 66.7 50.2999 66.2C54.1999 62.2 59 61.8 64 61.3C69.7 60.8 75.7 60.3 81.3 54.6C90.4 45.5 90.4 30.6 81.3 21.5C72.2 12.4 57.3 12.4 48.2 21.5C42.5 27.2 42.1 33 41.7 38.7C41.3 43.8 41 48.7 37 52.8C36.5 53.3 35.7 53.3 35.2 52.8C34.7 52.3 34.7 51.5 35.2 51C38.6 47.5 38.9 43.3 39.2 38.5C39.6 32.6 40.1 26 46.4 19.7C56.5 9.6 72.9999 9.6 83.0999 19.8C93.1999 29.9 93.1999 46.4 83.0999 56.5C76.7999 62.8 70.0999 63.4 64.1999 63.9C59.3999 64.3 55.2999 64.7 52.0999 68C51.7999 68.2 51.5 68.4 51.2 68.4Z" fill="#00ACA9"></path> <path d="M32.5 86.9C30.7 86.9 28.9 86.2 27.6 84.9L18.1 75.4C15.4 72.7 15.4 68.2 18.1 65.5L30.7999 52.8C32.1999 51.4 34.2 50.6 36.2 50.8C36.9 50.8 37.4 51.4 37.4 52.1C37.4 52.8 36.7999 53.3 36.0999 53.3C34.7999 53.2 33.5999 53.7 32.5999 54.6L19.8 67.3C18.1 69 18.1 71.9 19.8 73.6L29.2999 83.1C30.9999 84.8 33.8999 84.8 35.5999 83.1L48.2999 70.4C49.4999 69.2 49.9999 68 49.7999 66.8C49.5999 66.7 49 66.5 48.5 66.4C46.1 65.8 42 64.8 38 59.2C37.6 58.6 37.6999 57.8 38.2999 57.4C38.8999 57 39.6999 57.1 40.0999 57.7C43.4999 62.5 46.8999 63.4 49.0999 64C50.4999 64.4 51.9 64.7 52.2 66.1C52.7 68.2 51.9999 70.3 50.0999 72.2L37.4 84.9C36.1 86.2 34.3 86.9 32.5 86.9Z" fill="#00ACA9"></path> <path d="M23.7 87.7C21.5 87.7 19.4 86.9 17.7 85.2C14.4 81.9 14.4 76.5 17.7 73.2C18.2 72.7 19 72.7 19.5 73.2C20 73.7 20 74.5 19.5 75C17.2 77.3 17.2 81.1 19.5 83.4C21.8 85.7 25.6 85.7 27.9 83.4C28.4 82.9 29.2 82.9 29.7 83.4C30.2 83.9 30.2 84.7 29.7 85.2C28 86.8 25.9 87.7 23.7 87.7Z" fill="#00ACA9"></path> <path d="M52.5999 27.4C52.2999 27.4 52 27.3 51.7 27C51.2 26.5 51.2 25.7 51.7 25.2C58.9 18 70.4999 18 77.6999 25.2C78.1999 25.7 78.1999 26.5 77.6999 27C77.1999 27.5 76.4 27.5 75.9 27C72.9 24 68.8999 22.4 64.6999 22.4C60.4999 22.4 56.5 24 53.5 27C53.2 27.3 52.8999 27.4 52.5999 27.4Z" fill="#00ACA9"></path> </svg> 