<?xml version="1.0" encoding="UTF-8"?> <svg xmlns="http://www.w3.org/2000/svg" width="100" height="100" viewBox="0 0 100 100" fill="none"> <path opacity="0.1" d="M42.5 97.9C63.9286 97.9 81.3 80.5286 81.3 59.1C81.3 37.6713 63.9286 20.3 42.5 20.3C21.0713 20.3 3.69995 37.6713 3.69995 59.1C3.69995 80.5286 21.0713 97.9 42.5 97.9Z" fill="#BCBCBC"></path> <path d="M92 9.69999C92 9.29999 91.9 8.99999 91.6 8.69999C91.3 8.39999 91 8.29999 90.6 8.29999C89.7 8.39999 67.8 10.4 52.3 25.8C48.6 29.5 44.8 34.4 41 40.5C33.2 38.9 25.2 41.3 19.5 47C16.5 50 14.4 53.7 13.3 57.7C13.2 58.2 13.4 58.7 13.8 59C14 59.2 14.3 59.2 14.5 59.2C14.7 59.2 15 59.1 15.2 59C20.3 55.7 26.6 55 32.2 57.2C32.1 58.8 32.5 60.3 35.1 63.2L25.6 72.7C25.1 73.2 25.1 74 25.6 74.4C25.8 74.6 26.2 74.8 26.5 74.8C26.8 74.8 27.1 74.7 27.4 74.4L36.9 64.9C39.8 67.6 41 67.7 42.7 67.7H42.8C45.1 73.4 44.4 79.7 41.1 84.8C40.8 85.2 40.8 85.8 41.1 86.2C41.3 86.5 41.7 86.7 42.1 86.7C42.2 86.7 42.3 86.7 42.4 86.7C46.4 85.6 50.1 83.5 53.1 80.5C58.8 74.8 61.2 66.8 59.6 59C65.7 55.2 70.7 51.4 74.3 47.7C89.9 32.5 91.9 10.6 92 9.69999ZM68.5 17.8C68.6 17.7 68.7 17.6 68.8 17.4C77.7 13.1 86 11.5 89.4 11C88.9 14.3 87.3 22.7 83 31.6C82.9 31.7 82.7 31.7 82.6 31.9C82.2 32.3 78.6 31.5 73.8 26.6C68.9 21.7 68.1 18.2 68.5 17.8ZM57.7 57.6C56.1 58.6 54.3 59.6 52.5 60.7C51.9 61 51.7 61.8 52 62.4C52.3 63 53.1 63.2 53.7 62.9C55 62.2 56.2 61.4 57.4 60.7C58.5 67.4 56.3 74.2 51.4 79.1C49.5 81 47.2 82.6 44.7 83.6C47.2 78.1 47.2 71.9 44.8 66.3C44.8 66.3 44.8 66.3 44.8 66.2C44.8 66.2 44.8 66.1 44.7 66.1C44.7 66.1 44.7 66 44.6 66L44.5 65.9L44.4 65.8C44.4 65.8 44.3 65.8 44.3 65.7C44.3 65.7 44.2 65.7 44.2 65.6C44.2 65.6 44.1 65.6 44.1 65.5H44H43.9H43.8C43.8 65.5 43.8 65.5 43.7 65.5C43.3 65.5 43 65.5 42.7 65.5C41.6 65.5 40.9 65.5 38.6 63.4L52.6 49.4C53.1 48.9 53.1 48.1 52.6 47.7C52.1 47.2 51.3 47.2 50.9 47.7L36.9 61.7C34.5 59.2 34.6 58.2 34.7 57.2C34.7 57.1 34.7 57.1 34.7 57C35.1 56.3 35.4 55.5 35.8 54.8C36.1 54.2 35.9 53.5 35.3 53.2C34.7 52.9 34 53.1 33.7 53.7C33.5 54.2 33.2 54.6 33 55.1C27.7 53.1 21.9 53.3 16.7 55.6C17.8 53.1 19.3 50.8 21.2 48.9C26.1 44 32.9 41.8 39.6 42.9C39.2 43.6 38.8 44.3 38.4 45C38.1 45.6 38.3 46.3 38.8 46.7C39.4 47 40.1 46.8 40.5 46.3C41.2 45.1 41.9 43.9 42.6 42.7C46.5 36.4 50.3 31.3 54 27.7C57.7 24 61.8 21.1 65.9 18.9C66.3 21.7 68.9 25.4 71.9 28.4C74.9 31.4 78.6 34 81.4 34.4C79.1 38.5 76.2 42.6 72.6 46.3C69 49.9 64 53.7 57.7 57.6ZM61.9 28.9C59.3 28.9 56.9 29.9 55.1 31.7C51.4 35.4 51.4 41.5 55.1 45.2C56.9 47 59.3 48 61.9 48C64.5 48 66.9 47 68.7 45.2C72.4 41.5 72.4 35.4 68.7 31.7C66.9 29.9 64.4 28.9 61.9 28.9ZM66.9 43.5C65.6 44.8 63.8 45.6 61.9 45.6C60 45.6 58.2 44.9 56.9 43.5C54.1 40.7 54.1 36.2 56.9 33.4C58.2 32.1 60 31.3 61.9 31.3C63.8 31.3 65.6 32 66.9 33.4C69.7 36.2 69.7 40.7 66.9 43.5Z" fill="#00ACA9"></path> </svg> 