<?xml version="1.0" encoding="UTF-8"?> <svg xmlns="http://www.w3.org/2000/svg" width="100" height="100" viewBox="0 0 100 100" fill="none"> <path fill-rule="evenodd" clip-rule="evenodd" d="M94.4 6.39999H37.4C35 6.39999 33 8.39999 33 10.8V27.5H32.9V27.8L33 40C33 40.2 33 40.5 32.9 40.7C32.8 40.9 32.7 41.1 32.5 41.3C32.3 41.5 32.1 41.6 31.9 41.7C31.7 41.8 31.5 41.8 31.2 41.8C31 41.8 30.7 41.8 30.5 41.7C30.3 41.6 30.1 41.5 29.9 41.3C29.7 41.1 29.6 40.9 29.5 40.7C29.4 40.5 29.4 40.3 29.4 40V39.7C29.4 39.3 29.3 39 29.2 38.7C29 38.3 28.8 37.9 28.5 37.6C28.2 37.3 27.8 37 27.4 36.9C27 36.7 26.6 36.6 26.1 36.6C25.6 36.6 25.1999 36.7 24.7999 36.9C24.3999 37.1 24 37.3 23.7 37.6C23.4 37.9 23.1 38.3 23 38.7C22.9 39 22.7999 39.4 22.7999 39.7V39.9V40V40.3V50.6C22.7999 50.8 22.8 51.1 22.7 51.3C22.6 51.5 22.4999 51.7 22.2999 51.9C22.0999 52.1 21.9 52.2 21.7 52.3C21.5 52.4 21.3 52.4 21 52.4C20.8 52.4 20.4999 52.4 20.2999 52.3C20.0999 52.2 19.9 52.1 19.7 51.9C19.5 51.7 19.3999 51.5 19.2999 51.3C19.1999 51.1 19.2 50.9 19.2 50.6V50.3C19.2 49.9 19.1 49.6 19 49.3C18.8 48.9 18.5999 48.5 18.2999 48.2C17.9999 47.9 17.6 47.6 17.2 47.5C16.8 47.3 16.4 47.2 15.9 47.2C15.4 47.2 15 47.3 14.6 47.5C14.2 47.7 13.8 47.9 13.5 48.2C13.2 48.5 12.9 48.9 12.8 49.3C12.6 49.7 12.5 50.1 12.5 50.6V59.2H12C10.5 59.2 9.09995 59.5 7.89995 60C6.59995 60.6 5.39995 61.4 4.39995 62.4C3.39995 63.4 2.59995 64.6 1.99995 65.9C1.49995 67.2 1.19995 68.6 1.19995 70V82.7C1.19995 84.2 1.49995 85.6 1.99995 86.8C2.59995 88.1 3.39995 89.3 4.39995 90.3C5.39995 91.3 6.59995 92.1 7.89995 92.7C9.19995 93.2 10.6 93.5 12 93.5H14.8C16.3 93.5 17.6999 93.2 18.9 92.7C20.1999 92.1 21.4 91.3 22.4 90.3C23.4 89.3 24.1999 88.1 24.7999 86.8C25.2999 85.5 25.6 84.1 25.6 82.7V70C25.6 68.5 25.2999 67.1 24.7999 65.9C24.1999 64.6 23.4 63.4 22.4 62.4C21.4 61.4 20.1999 60.6 18.9 60C17.6 59.5 16.2 59.2 14.8 59.2H14.1V50.6C14.1 50.4 14.1 50.1 14.2 49.9C14.3 49.7 14.4 49.5 14.6 49.3C14.8 49.1 15 49 15.2 48.9C15.4 48.8 15.6 48.8 15.9 48.8C16.1 48.8 16.4 48.8 16.6 48.9C16.8 49 17 49.1 17.2 49.3C17.4 49.5 17.5 49.7 17.6 49.9C17.7 50.1 17.7 50.3 17.7 50.6V50.9C17.7 51.3 17.8 51.6 17.9 51.9C18.1 52.3 18.3 52.7 18.6 53C18.9 53.3 19.3 53.6 19.7 53.7C20.1 53.9 20.5 54 21 54C21.5 54 21.8999 53.9 22.2999 53.7C22.6999 53.5 23.1 53.3 23.4 53C23.7 52.7 24 52.3 24.1 51.9C24.3 51.5 24.4 51.1 24.4 50.6V40V39.9C24.4 39.7 24.5 39.5 24.5 39.3C24.6 39.1 24.7 38.9 24.9 38.7C25.1 38.5 25.3 38.4 25.5 38.3C25.7 38.2 25.9 38.2 26.2 38.2C26.4 38.2 26.7 38.2 26.9 38.3C27.1 38.4 27.3 38.5 27.5 38.7C27.7 38.9 27.8 39.1 27.9 39.3C28 39.5 28 39.7 28 40V40.3C28.1 41.1 28.4 41.9 29 42.4C29.3 42.7 29.7 43 30.1 43.1C30.5 43.3 30.9 43.4 31.4 43.4C31.9 43.4 32.3 43.3 32.7 43.1C32.9 43 33 42.9 33.2 42.8V67.2C33.2 69.6 35.1999 71.6 37.5999 71.6H94.6C97 71.6 99 69.6 99 67.2V10.8C98.8 8.39999 96.8 6.39999 94.4 6.39999ZM24.2 82.7C24.2 85.2 23.2 87.5 21.5 89.2C20.6 90.1 19.6 90.7 18.5 91.2C17.4 91.7 16.2 91.9 15 91.9H12.2C11 91.9 9.79995 91.7 8.69995 91.2C7.59995 90.7 6.59995 90 5.69995 89.2C4.79995 88.3 4.19995 87.3 3.69995 86.2C3.19995 85.1 2.99995 83.9 2.99995 82.7V71.3C4.79995 71.6 6.69995 71.9 8.59995 72C10.6 72.2 12.6 72.3 14.6 72.2C16.3 72.2 18 72.1 19.6 72C21.2 71.9 22.7 71.7 24.2 71.5V82.7ZM14.9 60.8C16.1 60.8 17.3 61 18.4 61.5C19.5 62 20.5 62.7 21.4 63.5C22.3 64.4 22.9 65.4 23.4 66.5C23.8 67.5 24.1 68.7 24.1 69.9C22.6 70.1 21 70.3 19.4 70.4C17.8 70.5 16.1 70.6 14.4 70.6C12.4 70.6 10.4 70.5 8.39995 70.4C6.49995 70.2 4.59995 70 2.79995 69.7C2.89995 68.6 3.09995 67.5 3.49995 66.5C3.99995 65.4 4.59995 64.4 5.49995 63.6C6.39995 62.7 7.39995 62.1 8.49995 61.6C9.59995 61.1 10.8 60.9 12 60.9L14.9 60.8ZM35.0999 20.9H74.7V41H69C68.4 41 68 41.5 68 42V47.7H35.0999V20.9ZM70 47.7V43H74.7V47.7H70ZM74.7 49.7V54.4H70V49.7H74.7ZM96.7 67.3C96.7 68.6 95.6 69.7 94.3 69.7H37.2999C35.9999 69.7 34.9 68.6 34.9 67.3V49.7H68V55.4C68 56 68.5 56.4 69 56.4H74.7V64.9C74.7 65.5 75.2 65.9 75.7 65.9C76.2 65.9 76.7 65.4 76.7 64.9V56.4H82.4C83 56.4 83.4 55.9 83.4 55.4V49.7H93.1C93.7 49.7 94.1 49.2 94.1 48.7C94.1 48.1 93.6 47.7 93.1 47.7H83.4V42C83.4 41.4 82.9 41 82.4 41H76.7V20.9H96.7V67.3ZM81.4 49.7V54.4H76.7V49.7H81.4ZM76.7 47.7V43H81.4V47.7H76.7ZM96.7 18.9H35.0999V10.8C35.0999 9.49999 36.2 8.39999 37.5 8.39999H94.5C95.8 8.39999 96.9 9.49999 96.9 10.8V18.9H96.7ZM47 11.7C45.8 11.7 44.7999 12.7 44.7999 13.9C44.7999 15.1 45.8 16.1 47 16.1C48.2 16.1 49.2 15.1 49.2 13.9C49.2 12.7 48.2 11.7 47 11.7ZM47 14.2C46.9 14.2 46.7999 14.1 46.7999 14C46.7999 13.9 46.9 13.8 47 13.8C47.1 13.8 47.2 13.9 47.2 14C47.2 14.1 47.1 14.2 47 14.2ZM40.7 11.7C39.5 11.7 38.5 12.7 38.5 13.9C38.5 15.1 39.5 16.1 40.7 16.1C41.9 16.1 42.9 15.1 42.9 13.9C42.9 12.7 41.9 11.7 40.7 11.7ZM40.7 14.2C40.6 14.2 40.5 14.1 40.5 14C40.5 13.9 40.6 13.8 40.7 13.8C40.8 13.8 40.9 13.9 40.9 14C40.9 14.1 40.8 14.2 40.7 14.2ZM53.5 11.7C52.3 11.7 51.2999 12.7 51.2999 13.9C51.2999 15.1 52.3 16.1 53.5 16.1C54.7 16.1 55.7 15.1 55.7 13.9C55.7 12.7 54.7 11.7 53.5 11.7ZM53.5 14.2C53.4 14.2 53.2999 14.1 53.2999 14C53.2999 13.9 53.4 13.8 53.5 13.8C53.6 13.8 53.7 13.9 53.7 14C53.7 14.1 53.6 14.2 53.5 14.2ZM11.8 62.5C11.6 62.7 11.4 63 11.3 63.2C11.2 63.5 11.1 63.8 11.1 64.1V67.5C11.1 67.8 11.2 68.1 11.3 68.4C11.4 68.7 11.6 68.9 11.8 69.1C12 69.3 12.3 69.5 12.5 69.6C12.8 69.7 13.1 69.8 13.4 69.8C13.7 69.8 14 69.7 14.3 69.6C14.6 69.5 14.8 69.3 15 69.1C15.2 68.9 15.4 68.6 15.5 68.4C15.6 68.1 15.7 67.8 15.7 67.5V64.1C15.7 63.8 15.6 63.5 15.5 63.2C15.4 62.9 15.2 62.7 15 62.5C14.8 62.3 14.5 62.1 14.3 62C14 61.9 13.7 61.8 13.4 61.8C13.1 61.8 12.8 61.9 12.5 62C12.2 62.2 12 62.3 11.8 62.5ZM12.7 63.9C12.7 63.8 12.8 63.7 12.9 63.6C13 63.5 13.1 63.5 13.2 63.4C13.3 63.4 13.4 63.3 13.5 63.3C13.6 63.3 13.7 63.3 13.8 63.4C13.9 63.4 14 63.5 14.1 63.6C14.2 63.7 14.2 63.8 14.3 63.9C14.3 64 14.4 64.1 14.4 64.2V67.6C14.4 67.7 14.4 67.8 14.3 67.9C14.3 68 14.2 68.1 14.1 68.2C14 68.3 13.9 68.3 13.8 68.4C13.7 68.4 13.6 68.5 13.5 68.5C13.4 68.5 13.3 68.5 13.2 68.4C13.1 68.4 13 68.3 12.9 68.2C12.8 68.1 12.8 68 12.7 67.9C12.7 67.8 12.6 67.7 12.6 67.6V64.2C12.6 64 12.6 63.9 12.7 63.9Z" fill="#00ACA9"></path> </svg> 