<?xml version="1.0" encoding="UTF-8"?> <svg xmlns="http://www.w3.org/2000/svg" width="100" height="100" viewBox="0 0 100 100" fill="none"> <g clip-path="url(#clip0)"> <path d="M25.7999 19.8C24.2999 19.8 23.2 21 23.2 22.4C23.2 23.9 24.3999 25 25.7999 25C27.2999 25 28.4 23.8 28.4 22.4C28.5 21 27.2999 19.8 25.7999 19.8ZM12.4 19.8C10.9 19.8 9.79995 21 9.79995 22.4C9.79995 23.9 11 25 12.4 25C13.8 25 15 23.8 15 22.4C14.9 21 13.7 19.8 12.4 19.8ZM19.1 19.8C17.6 19.8 16.5 21 16.5 22.4C16.5 23.9 17.7 25 19.1 25C20.5 25 21.7 23.8 21.7 22.4C21.7 21 20.6 19.8 19.1 19.8ZM14 60.4C14.5 60.4 14.9 60.4 15.5 60.3C16.8 62.4 18.5 63.7 20.6 64.1C21 64.2 21.4 64.2 21.9 64.2C23.8 64.2 25.7999 63.5 27.2999 62.6C25.5999 66.1 24.3 69.9 23.7 72C20.1 69.5 17.4 65.8 16.2 61.7C16 61.3 15.7 61 15.2 61C15.1 61 15 61 14.9 61C14.6 61.1 14.4 61.3 14.3 61.5C14.2 61.7 14.1 62 14.2 62.2C15.6 67.3 18.8999 71.5 23.2999 74.2C23.3999 74.4 23.6 74.4 23.7 74.5C26.9 76.3 30.4999 77.4 34.0999 77.4C37.5999 77.4 40.9999 76.5 44.0999 74.8C44.2999 74.8 44.4 74.7 44.4 74.6C46.5 73.4 48.3999 71.8 49.7999 70.1C49.8999 70 50 69.9 50 69.9C53.1 66.2 54.7999 61.5 54.7999 56.7C54.7999 48.9 50.6 41.9 43.7 38.4C42.1 34.7 38.4 32.2 34.5 32.2C30.6 32.2 27.1 34.4 25.5 37.9C25.4 37.9 25.3 37.9 25.2 38C24.8 38.2 24.5 38.4 24.1 38.6C21.7 39.9 19.7 41.6 17.9 43.9C17.5 44.3 17.6 44.9 18.1 45.3C18.3 45.4 18.5 45.5 18.7 45.5C19 45.5 19.3 45.4 19.4 45.1C20.9 43.3 22.6 41.7 24.7 40.6C24.6 41.2 24.5 41.7 24.5 42.4C24.5 43.9 24.8 45.4 25.1 46.2C25.2 46.6 25.6 46.8 26 46.8C26.3 46.8 26.5 46.8 26.7 46.7C28 50.3 30.8 53.8 34.2 53.8C38.7 53.8 41.8999 47.9 42.2999 43.7C43.1999 43.2 43.9 42.7 44.2 42C44.4 41.9 44.4 41.7 44.4 41.5C44.4 41.3 44.3999 41.2 44.2999 41C49.6999 44.5 52.7999 50.3 52.7999 56.7C52.7999 60.6 51.6 64.3 49.4 67.5C46.5 61.8 40.4 59.1 39 58.5C37.5 55.8 36 54.5 34.5 54.5C32.7 54.5 30.9 56.1 29.1 58.9C28.7 59.3 25.1 62.2 21.7 62.2C21.3 62.2 21.1 62.2 20.8 62.1C19.5 61.9 18.4 61.1 17.5 59.9C18.1 59.7 18.5 59.3 18.9 59C19.9 57.7 19.7 56 19.4 53.6C19.3 52.9 19.2 52.2 19.1 51.4C18.7 47 17.7 44.9 16.1 44.9C16 44.9 15.9 44.9 15.8 44.9C15 45.1 14.1 45.7 14.6 52.1C12.5 52.6 10.4 53.9 10.5 56.6C10.6 59.3 11.7 60.4 14 60.4ZM34.2999 51.8C32.0999 51.8 29.8999 49 28.7999 46.3C31.4999 45.7 35.0999 44.3 37.2999 42.5C37.1999 43.2 37.0999 43.6 37.0999 43.6C36.9999 43.9 37.0999 44.2 37.2999 44.4C37.4999 44.6 37.7999 44.8 38.0999 44.8C38.3999 44.8 39.3 44.6 40.4 44.4C39.7 47.5 37.2999 51.8 34.2999 51.8ZM39.2 42.6C39.2 42.2 39.2999 41.9 39.2999 41.5C39.2999 40.9 39.3999 40.3 39.2999 39.7C39.2999 39.2 38.9 38.9 38.5 38.8H38.2999C37.8999 38.8 37.6 39 37.4 39.4C37.2 39.8 36.9 40.1 36.4 40.6C34.2 42.5 29.6 44.2 26.6 44.7C26.5 44.1 26.2999 43.3 26.2999 42.3C26.2999 37.9 29.8999 34.3 34.2999 34.3C37.5999 34.3 40.4999 36.2 41.7999 39.2C41.7999 39.5 41.9 39.7 42 39.8C42.2 40.4 42.4 40.9 42.4 41.6C42.1 41.8 40.8 42.3 39.2 42.6ZM48.2 69.2C47.1 70.4 45.8 71.5 44.4 72.4C43.1 67.9 41.8 64.3 40.5 61.5C40.5 61.4 40.4 61.4 40.4 61.3C42.8 62.5 46.5 65.1 48.2 69.2ZM34.5999 56.6C35.1999 56.6 37.9999 57.4 42.5999 73.5C39.8999 74.9 37.1 75.5 34 75.5C30.9 75.5 27.8 74.7 25.1 73.2C27.8 64.9 31.6999 56.6 34.5999 56.6ZM15.6 54C15.9 54 16.1 53.9 16.2 53.6C16.4 53.4 16.5 53.1 16.4 52.9C16.2 50.9 16.2 48.7 16.3 47.5C16.6 48.1 16.9 49.3 17.1 51.7C17.2 52.5 17.3 53.3 17.4 54C17.6 55.8 17.9 57.2 17.3 57.9C17 58.2 16.6 58.4 15.8 58.5H15.2C14.7 58.5 14.3 58.6 13.9 58.6C13 58.6 12.4 58.6 12.2 56.7C12.2 54.3 15.5 54.1 15.6 54ZM91.1 16.6H8.89995C6.89995 16.6 5.19995 18.3 5.19995 20.3V79.7C5.19995 81.7 6.89995 83.4 8.89995 83.4H91C93 83.4 94.7 81.7 94.7 79.7V20.3C94.8 18.3 93.1 16.6 91.1 16.6ZM87.5 81.4L73.8 81.5V81.4C73.7 80.5 73.7 79.6 74 78.7C74.5 76.9 75.6 75.5 77.2 74.5C78.2 73.9 79.4 73.6 80.6 73.6C81.2 73.6 81.8 73.7 82.4 73.9C85 74.5 86.9 76.7 87.4 79.3C87.5 80 87.5 80.6 87.5 81.4ZM92.8 79.7C92.8 80.6 92 81.5 91 81.5H89.2C89.3 80.7 89.3 79.8 89.1 79C88.5 75.7 86 72.9 82.7 72.1C82 71.9 81.2 71.8 80.4 71.8C78.8 71.8 77.4 72.2 76 73C74 74.2 72.5 76 71.9 78.4C71.6 79.4 71.5 80.5 71.6 81.6H62.5C62.4 80 62.6 78.5 63 76.9C63.1 76.5 62.9 76.1 62.5 75.9L57.7999 73L59.9 68.5L65.0999 70.3C65.1999 70.3 65.3 70.4 65.4 70.4C65.7 70.4 65.9 70.3 66 70.1L69.7 66.3C70 66 70.1 65.7 69.9 65.3L68.0999 60.2L72.6 58.1L75.4 62.7C75.6 63 75.9 63.2 76.2 63.2C76.3 63.2 76.4 63.2 76.4 63.2C77.7 62.9 79.1 62.7 80.4 62.7C80.8 62.7 81 62.7 81.5 62.7C81.9 62.7 82.2 62.4 82.4 62.1L84.2 57L89 58.3L88.1 63.7C88 64.2 88.2 64.5 88.7 64.7C90.2 65.4 91.6 66.4 92.8 67.6V79.7ZM92.8 64.9C92 64.3 91.1 63.7 90.2 63.1L91.1 57.7C91.2 57.2 90.9 56.8 90.4 56.6L84 54.9C83.9 54.9 83.8 54.9 83.7 54.9C83.3 54.9 83 55.2 82.8 55.5L80.9 60.7C80.7 60.7 80.6 60.7 80.4 60.7C79.1 60.7 77.9 60.8 76.6 61.1L73.7 56.3C73.5 56 73.2 55.8 72.9 55.8C72.7 55.8 72.6 55.8 72.5 55.9L66.5999 58.8C66.0999 59 65.9999 59.5 66.0999 60L68 65.4L65.0999 68.3L59.7 66.4C59.6 66.4 59.5 66.3 59.4 66.3C59 66.3 58.6999 66.5 58.5999 66.9L55.7 73C55.5 73.5 55.6999 74 56.0999 74.2L61.0999 77.2C60.7999 78.7 60.7 80.2 60.7 81.6H8.89995C7.99995 81.6 7.09995 80.8 7.09995 79.8V28.8H92.7V64.9H92.8ZM92.8 26.7H7.19995V20.3C7.19995 19.4 7.99995 18.5 8.99995 18.5H91.1C92 18.5 92.9 19.3 92.9 20.3V26.7H92.8Z" fill="#00ACA9"></path> </g> <defs> <clipPath id="clip0"> <rect width="100" height="100" fill="white"></rect> </clipPath> </defs> </svg> 